<svg xmlns="http://www.w3.org/2000/svg" width="65" height="65"><path d="M59.407 33.57l-.427-1.326-.479-1.487L57 33l-.646.963-4.533 6.768 1.662 1.113 3.163-4.722C54.68 48.675 44.604 57.5 32.5 57.5c-11.056 0-20.42-7.362-23.458-17.44l-2.005.259C10.221 51.381 20.426 59.5 32.5 59.5c13.052 0 23.922-9.486 26.097-21.925l1.719 5.34 1.904-.613-2.813-8.732zM8.955 30.997l4.507-6.728-1.662-1.113-3.306 4.936C10.774 16.926 20.671 8.5 32.5 8.5c10.701 0 19.815 6.899 23.146 16.48l2.022-.261C54.183 14.151 44.221 6.5 32.5 6.5c-12.641 0-23.235 8.898-25.866 20.758l-1.666-5.173-1.903.613 2.8 8.697.163.507.753 2.34L8.015 32.4l.94-1.403z"/></svg>
