<svg xmlns="http://www.w3.org/2000/svg" width="70" height="70"><g fill="#222"><path d="M34.825 41.533c3.697 0 6.709-3.008 6.709-6.707a6.68 6.68 0 0 0-1.268-3.909 6.702 6.702 0 0 0-5.438-2.798 6.702 6.702 0 0 0-5.44 2.797 6.68 6.68 0 0 0-1.268 3.909c-.003 3.699 3.007 6.708 6.705 6.708zM49.473 26.621v-6.459l-.841.002-5.62.019.021 6.46z"/><path d="M34.826 1.322c-18.474 0-33.504 15.031-33.504 33.504S16.353 68.33 34.826 68.33 68.33 53.3 68.33 34.826 53.302 1.322 34.826 1.322zm19.055 29.595v15.601c0 4.063-3.304 7.366-7.364 7.366h-23.38c-4.062 0-7.365-3.303-7.365-7.366V23.138a7.372 7.372 0 0 1 7.365-7.365h23.378c4.063 0 7.366 3.303 7.366 7.365v7.779z"/><path d="M45.248 34.826c0 5.745-4.675 10.422-10.422 10.422-5.748 0-10.421-4.677-10.421-10.422 0-1.381.275-2.703.766-3.909h-5.688v15.601a3.65 3.65 0 0 0 3.652 3.649h23.379a3.653 3.653 0 0 0 3.652-3.649V30.917h-5.691c.494 1.206.773 2.528.773 3.909z"/></g></svg>
