Open SVG
Paste markup
Demo
Contribute
About

Powered by the incredible SVGO
12.76k → 9.26k 72.61%

<svg xmlns="http://www.w3.org/2000/svg" width="125" height="200"><g fill="#222"><path d="M72.891 165.898l-.05.008a1.986 1.986 0 0 1-.157.016l-.052.002h-.005l-.017.001.021.001a1.939 1.939 0 0 0 .209-.02l.051-.008c.051-.009.102-.02.15-.032l.035-.009-.035.009c-.049.013-.1.024-.15.032zM79.307 152.754l-.001.002-.007.008c-.031.033-.066.063-.102.094l-.058.047a1.959 1.959 0 0 1-.026.02l-.009.006a1.363 1.363 0 0 1 .001 0l.008-.006c.01-.006.018-.013.027-.02l.059-.047c.034-.03.07-.061.102-.094.002-.003.008-.005.01-.008 0 0 .006 0 .006-.002a1.39 1.39 0 0 0 .116-.145c-.015.008-.028.014-.034.021-.029.044-.057.087-.092.124zM78.219 159.305c.004-.002.008-.014.013-.016.011-.004.02-.036.029-.036-.01 0-.019.016-.029.019-.005.002-.009-.002-.013-.001-.01.003-.021-.017-.031-.018v.034c.003-.001.006.022.009.029l.022-.011zM78.197 159.319v-.001zM78.672 159.042l-.003.003.003-.003.021-.022a.36.36 0 0 0 .018-.02l.026-.027.003-.002a1.309 1.309 0 0 1-.003 0l-.001.002-.026.027-.017.02-.021.022zM71.987 165.843l.009-.008-.009-.001zM74.246 150.205h-.02.02zM71.975 165.85h.001v-.002zM79.426 150.813l.016.025v-.001a.25.25 0 0 1-.016-.024zM78.394 153.189a.028.028 0 0 1 .012-.008l-.028.008h.016z"/><path d="M78.371 159.248a1.16 1.16 0 0 0 .133-.078c.02-.012.037-.025.056-.039.024-.018.048-.037.071-.057.021-.018.043-.036.063-.056l.017-.019a.664.664 0 0 0 .026-.028l-.026.028-.017.019a.84.84 0 0 1-.063.056c-.023.02-.047.038-.071.057l-.056.038a1.31 1.31 0 0 1-.133.075l-.012.004c-.018.008-.036.01-.055.018.019-.008.037-.002.055-.012l.012-.006zM71.61 165.683v.005l.004.001.015-.004-.01-.005-.009.003zM76.196 153.106c-.641 0-1.287.051-1.946.051.365 0 .728-.081 1.088-.078.287.001.574-.079.858-.079h.262c-.087 0-.174.107-.262.106zM75.338 153.217c.287.002.574.004.858.004h.05-.05c-.284 0-.571-.002-.858-.004zM78.773 159.064v-.051l-.001.051zM76.512 159.444v-.003c-.022 0-.01.002-.033.002l.033.001z"/><path d="M79.716 151.52c0-.001 0-.001 0 0v-.002c0-.008-.033-.018-.034-.026-.008-.082-.037-.161-.055-.237-.001-.002-.01-.002-.01-.004-.001-.004-.008-.008-.008-.012-.004-.014-.01-.026-.014-.041-.01-.035-.026-.077-.039-.112-.008-.026.208-.086.208-.086H80v.008c0-.006-.202.069-.205.063-.01-.053-.149-.071-.149-.071h-.089s-.021-.086-.03-.09c-.015-.006-.044.044-.048.039-.001-.001-.009.051-.015.051h-.003c-.008 0-.018-.104-.02-.107a1.55 1.55 0 0 0-.316-.373c-.002-.003-.012-.03-.015-.032-.044-.032-.095-.07-.144-.098.003.002.006-.002.008 0-.008-.005-.015-.013-.023-.017-.014-.008-.026-.02-.041-.027l-.012-.007-.041-.017c-.006-.004-.014-.006-.021-.009l-.021-.009-.027-.01a.037.037 0 0 0-.011-.005l-.008-.003c-.026-.012.105-.022.078-.031l.152-.025v-.025.023c0-.001-.164.01-.168.008-.02-.006-.121-.002-.142-.008-.025-.006-.091-.01-.118-.015-.027-.006-.074-.013-.104-.019l-.013-.095c-.013-.002-.036-.101-.05-.101h-.002c-.041 0-.083.087-.125.085-.041-.003-.079.038-.121.038-.471-.01-.941.008-1.412.003-.469-.004-.941.005-1.41.005-.575 0-1.15.018-1.725.029-.365.006-.729-.08-1.092-.072-.01 0-.02-.088-.029-.088h.002c.009 0 .018.092.027.092.285-.007.572.036.857.031-.285.007-.572-.066-.857-.059-.002 0-.004-.064-.006-.064h-.01c-.105 0-.207.098-.305.113.098-.016.199.018.305.016.939-.021 1.889-.013 2.829-.013-.94 0-1.89.017-2.829.038a2.211 2.211 0 0 0-.474.067.156.156 0 0 0-.068.001c-.02.006-.039-.02-.058-.02l-.001.001a.494.494 0 0 1-.025.066c-.036.013-.071.025-.105.04-.01-.002-.02-.004-.029.001-.005.002.062.01.058.018-.55.245-.801.751-.801 1.435V152h-.072c0 2-.049 4.098-.049 6.197 0-2.098-.004-4.251-.004-6.357 0 2.106-.019 4.178-.018 6.275 0 2.099.002 4.184.014 6.292-.012-2.108-.021-4.214-.021-6.313 0 2.099.008 4.194.008 6.302l-.007.243c0 .043.003-.64.008.36H71v-.438.027c0 .006-.066.011-.065.016-.002.002.033.002.033.003.001.003.032.006.032.009v.002c0 .018-.061.035-.057.053.002.021-.024.042-.021.063.001.003-.016.007-.015.011.096.541.432.918.934 1.085.005.005.005.01.01.014.004.004.008.007.013.007h-.001s.002-.005.002-.011c.164.051.342.081.534.088.067.003.13.036.194.033-.016.001-.029.04-.044.04h.034c-.012 0-.023-.035-.036-.035-.045.001-.089-.016-.135-.017.04.001.079-.009.118-.01-.002 0-.004-.005-.007-.005l.008-.002c.034 0 .067-.002.1-.003l.052-.005c.054-.004.106-.01.157-.017l.05-.009c.051-.008.102-.02.15-.031a.46.46 0 0 1 .035-.01l-.035.009c-.049.013-.1.023-.15.032l-.05.008c-.051.008-.104.05-.157.054-.018.001-.034.04-.052.04h-.021H72.632c.018 0 .034-.039.052-.04.054-.004.106-.027.157-.034.017-.003.032-.016.05-.018.051-.01.102-.024.15-.037.012-.003.023-.008.035-.012.056-.016.109-.035.161-.057.003 0 .007.133.009.131.048-.02.091.066.135.066h.002c.002 0 .004-.138.008-.139.001-.001.004-.084.005-.082-.009.006-.019-.029-.028-.023.004-.002-.193-.024-.189-.025.008-.004-.178-.029-.178-.034v.003c0-.029.303-.054.35-.09.012-.008.124-.011.135-.02.007-.006.063-.01.07-.016.333-.29.543-.773.557-1.391.002-.16-.057-.318-.055-.477.002-.233-.057-.467-.057-.699v-.863.864c0 .232.07.466.068.698-.001.159.035.318.033.478-.016.616-.182 1.103-.515 1.394-.007.005-.004.011-.011.017-.01.009-.018.017-.028.024a1.293 1.293 0 0 1-.146.1l-.014.008-.007.004a.13.13 0 0 1 .017-.008.016.016 0 0 1 .007-.004l.021-.012c.04-.023.076-.051.112-.078l.037-.025.005-.004c.004-.002.007-.006.011-.01l.039-.035.045-.041c.008-.009.018-.016.025-.025l.021-.025a.98.98 0 0 0 .09-.108l.012-.017.023-.036c.019-.029.037-.059.055-.09l.018-.033c.012-.02.02-.041.029-.063l.005-.01c.008-.018.017-.034.024-.052.006-.017.013-.032.02-.048.013-.035.024-.072.036-.109.001-.006-.024-.011-.022-.017.006-.02-.012-.038-.012-.059v-.003c0-.041.049-.085.058-.129.001-.009.018-.018.02-.027.003-.013.013-.025.015-.039.002-.011.007-.021.009-.032.005-.038-.051-.075-.046-.114.002-.02-.055-.038-.055-.057v-.009c0-.015.064-.03.065-.044.004-.06.041-.117.042-.18.006-.6.025-1.41.025-2.008.001-.964.012-2.182.012-3.182H75.103L75 159V159.435v-.218l.129-.217H76.016h-.058H76.418c.003 0 .002 0 0 0h.003-.001H77.518c-.372 0-.759.012-1.136.013.381-.001.767-.013 1.141-.013h.006l.471.221V159h-.471.046c.081 0 .157.006.231-.003.022-.003.045.003.066.003H78.076c.004 0 .009.187.014.186l.003.094c.007-.002.013.042.019.04.044-.013.086-.002.127-.019.016-.006.029-.001.045-.008s.031-.008.047-.016c.016-.007.031-.01.046-.018l.063-.035c.021-.014.043-.024.063-.037 0-.001 0 0 0 0 .012-.008.021-.017.033-.024a.802.802 0 0 1 .043-.032l.039-.03.025-.024c.009-.009.039-.041.049-.049.001-.002.004-.027.006-.027H79v.056c0-.002-.115-.022-.108-.04.004-.002-.056-.002-.056-.005l-.035-.003c.002-.004-.027-.008-.027-.008h-.022c.005 0 .01.002.015-.002.001-.001.007.002.007.002h.113s.113-.046.113-.048v-.005c0-.01-.096-.021-.087-.031.001-.002-.056-.002-.055-.003.027-.024.026-.048.051-.073.009.009.008.021.016.029.007-.178.005-.085.015-.104.004-.008.002-.037.006-.045.133-.25.192-.566.171-.93-.051-.839-.688-1.331-1.663-1.357-1.103-.03-2.453-.012-3.453-.012v-3.205-.004c1 0 .78.002 1.104.004-.324-.002-.587-.004-.917-.004.659 0 1.337-.106 1.978-.106.088.001.206-.106.293-.106h-.212H78.368l.002.094c.06-.007.117.037.172.023.443-.079 1.01-.261 1.207-.58.008-.004.252.007.252.002v.007c0-.005-.234.218-.234.214-.002.005-.242.24-.244.24h-.029c.025 0 .043-.317.059-.367.012-.021.165-.153.174-.174.061-.166.275-.465.275-.674v-.008-.008c0-.082-.139-.161-.145-.239-.003-.004-.141-.008-.141-.011zm-8.102 14.168l-.004-.001v-.005l.009-.003.01.005a.068.068 0 0 1-.015.004zm.361.162l.001-.002-.001.002zm.012-.007v-.009l.009.001-.009.008zm6.372-6.595l.012-.004a1.31 1.31 0 0 0 .133-.075l.056-.038c.024-.019.048-.037.071-.057.021-.018.043-.036.063-.056l.017-.019a.664.664 0 0 0 .026-.028l-.026.028.026-.027.001-.002a.491.491 0 0 1 0 .002l-.026.027a.36.36 0 0 1-.018.02l-.021.022-.003.003.003-.003.021-.022.017-.02-.017.019a1.265 1.265 0 0 1-.134.113c-.019.014-.036.027-.056.039a1.16 1.16 0 0 1-.133.078l-.012.006c-.018.01-.036.004-.055.012.019-.008.038-.01.055-.018zm-.162.071c0-.001 0-.001 0 0zm-.009-.066c.011.001.021.021.031.018.004-.001.008.003.013.001.011-.003.02-.019.029-.019-.01 0-.019.032-.029.036-.005.002-.009.014-.013.016a.114.114 0 0 0-.022.012c-.003-.007-.006-.03-.009-.029v-.035zm-3.942-9.048h-.02.02zm4.148 2.984h-.017l.028-.008a.044.044 0 0 0-.011.008zm.922-.435c0 .002-.006.002-.006.002-.002.003-.008.005-.01.008-.031.033-.067.063-.102.094l-.059.047-.027.02-.008.006a1.381 1.381 0 0 1-.001 0l.009-.006a.256.256 0 0 0 .026-.02l.058-.047c.035-.03.07-.061.102-.094l.007-.008.001-.002c.035-.037.063-.08.092-.123.006-.008.02-.014.034-.021-.035.05-.076.1-.116.144zm.125-1.916l-.016-.025a.272.272 0 0 1 .016.025z"/><path d="M75.238 153.221c-.327 0-.656-.004-.988-.004.33 0 .655.004.979.004h.009zM75.238 153.217h.1a195.496 195.496 0 0 0-.1 0zM76.412 159h.004-.004zM61.649 150.178a280.463 280.463 0 0 0-8.205.004c-.913.015-1.418.689-1.386 1.61.031.896.556 1.388 1.497 1.413.766.02 1.445.004 2.445.004v1.145c0 3.276-.042 6.553-.03 9.829.004 1.101.632 1.79 1.534 1.784a2.07 2.07 0 0 0 .666-.113c.925-.309.952-1.091.952-1.932.002-3.248-.122-6.495-.122-9.743v-.97c1 0 1.7.012 2.436-.003.061-.001.163-.005.22-.009.054-.006.128-.012.179-.02.765-.123 1.206-.618 1.229-1.424.027-.878-.5-1.564-1.415-1.575zM41.694 130.887a7.05 7.05 0 0 0 .077-2.562c-.054-.355-.613-.774-1.024-.903-.617-.191-1.112.234-1.309.811-.168.495-.174 1.047-.252 1.572l.067.01c0 .199.009.397-.001.595-.034.654 0 1.281.789 1.481.649.166 1.479-.234 1.653-1.004zM96.8 126.49c-.974.021-1.609.451-1.914 1.398-.173.535-.229 1.106-.374 1.844.145.512.258 1.189.531 1.793.317.704.959 1.021 1.742 1.002.801-.019 1.46-.325 1.803-1.07.545-1.182.646-2.414.182-3.645-.358-.945-.995-1.341-1.97-1.322z"/><path d="M123 34.849C123 24.439 114.561 16 104.15 16H21.849C11.439 16 3 24.439 3 34.849V162.15C3 172.561 11.439 181 21.849 181h82.301c10.41 0 18.85-8.439 18.85-18.85V34.849zm-17.688 8.555c2.388 3.393.194 5.481-.755 6.409-1.844 1.802-12.314 11.623-12.942 18.126 0 0-1.634 4.87 14.954 15.676 0 0 4.397 2.01 3.141 4.901-1.256 2.89-4.648 3.519-8.419 1.633-3.77-1.885-19.013-9.702-23.372-17.341-4.361-7.639 1.787-14.423 4.523-17.215 6.157-6.283 13.697-11.435 17.215-12.943-.001 0 3.745-1.959 5.655.754zm-.126 83.457c-.92.531-1.475 1.324-1.479 2.432-.002 1.083-.005 2.166 0 3.249.004.533-.177.892-.776.89-.612-.002-.748-.375-.745-.905.012-1.71.021-3.421-.012-5.13-.006-.285-.162-.665-.378-.83-.483-.369-.292-.609.058-.854.809-.559 1.434-.254 1.851.725.851-.346 1.669-.846 2.546-.998 1.449-.25 2.459.736 2.479 2.225.017 1.282-.025 2.566.023 3.847.013.343.281.671.394 1.019.065.203.101.611.068.62-.45.118-.941.308-1.366.216-.248-.054-.551-.567-.564-.885-.06-1.48-.023-2.964-.029-4.445-.008-1.396-.846-1.885-2.07-1.176zm-9.791 6.524c-1.536-.497-2.387-1.902-2.33-3.85.086-2.953 2.18-4.678 4.89-4.027 1.551.373 2.422 1.531 2.61 3.474.308 3.182-2.237 5.35-5.17 4.403zm-5.652-6.807c-.011-.582.116-1.047.812-1.038.66.008.744.462.738 1.005-.016 1.595-.004 3.189-.006 4.784 0 .478-.092.975.502 1.241.078.034.025.636-.029.646-.484.093-1.027.245-1.463.103-.266-.087-.497-.651-.524-1.019-.072-.963-.024-1.935-.024-2.902-.001-.939.011-1.879-.006-2.82zm-.1-2.939a.766.766 0 1 1 1.531.001.766.766 0 0 1-1.531-.001zm-2.563 8.53c.359.196.669.395 1.027.591-.41.231-.813.591-1.248.666a2.04 2.04 0 0 1-.347.031c-.751-.002-1.187-.504-1.2-1.355-.021-1.421-.008-2.843-.01-4.264-.001-.31.024-.613-.134-.848-.085-.126-.224-.232-.45-.31-.165-.056-.248-.14-.271-.239-.126-.117-.199-.247-.199-.385 0-.309.349-.578.875-.735.039-.991.416-1.77.875-1.77.447 0 .814.733.871 1.682.734.126 1.257.446 1.257.823 0 .299-.271.563-.775.723-.139.117-.351.244-.351.388v4.933c0 .046.056.056.08.069zm.25-22.895c-3.393 2.388-5.48.194-6.408-.754-1.803-1.844-11.623-12.314-18.126-12.943 0 0-4.87-1.633-15.677 14.954 0 0-2.01 4.398-4.9 3.142s-3.519-4.649-1.634-8.419 9.702-19.013 17.341-23.373c7.639-4.361 14.423 1.787 17.215 4.523 6.282 6.157 11.435 13.697 12.942 17.216.001 0 1.961 3.745-.753 5.654zm-6.607 17.177c-.855-.334-1.613-.057-2.025.759-.251.497-.66.672-1.127.415-.521-.287-.41-.771-.143-1.186.573-.889 2.329-1.306 3.776-.924 1.106.293 1.701 1.07 1.753 2.428.045 1.166.003 2.335.021 3.502.004.273.008.654.174.793.357.301.667.54.148.904-.467.329-1.009.486-1.459-.027-.172-.196-.217-.503-.27-.632-.766.335-1.447.763-2.188.928-1.317.293-2.288-.319-2.599-1.458-.346-1.263.264-2.584 1.506-2.967.999-.309 2.056-.431 3.095-.637.298-.947.07-1.611-.662-1.898zm-5.702 5.717c-.005.365-.271.725-.416 1.088-.393-.214-.938-.327-1.154-.656-1.424-2.162-2.777-4.37-4.155-6.562-.103-.163-.222-.315-.455-.646 0 2.429-.001 4.648.001 6.867.001.502.027 1.039-.689 1.017-.646-.021-.64-.522-.639-.995.001-2.535.012-5.068-.016-7.603-.003-.325-.131-.718-.34-.956-.385-.438-.207-.648.195-.841.729-.347 1.408-.096 1.94.733 1.292 2.012 2.571 4.029 3.858 6.043.152.239.316.471.563.838.038-.336.081-.537.081-.738-.004-2.021-.012-4.043-.027-6.064-.003-.447-.029-.904.594-.918.652-.014.683.441.682.938-.007 2.818.013 5.637-.023 8.455zm-14.313.049c-.568-1.271-1.056-2.578-1.631-3.846-.212-.466-.553-.885-.889-1.281-.338-.398-.296-.71.094-1.006 1.014-.768 2.412-.353 2.85.855.454 1.25.889 2.508 1.408 3.98.6-1.583 1.138-2.959 1.64-4.348.205-.568.578-.832 1.154-.803.746.037 1.023.493.726 1.246a383.424 383.424 0 0 1-2.206 5.453c-.314.761-.629 1.528-1.029 2.244-.543.968-1.356 1.652-2.528 1.602-.426-.019-.994-.234-1.209-.555-.188-.279-.132-1.004.103-1.217.285-.26.868-.201 1.326-.248.12-.013.252.096.494.197l.515-1.149c-.327-.437-.649-.747-.818-1.124zm-6.021-4.313c0-1.281-.01-2.563.004-3.843.01-.952.405-1.379 1.233-1.387.835-.007 1.217.411 1.22 1.376.006 2.221.003 4.441.001 6.661 0 .48-.039.905.521 1.22.488.275.333.768-.117 1.018-.693.383-1.448.563-2.204.178-.67-.342-.665-.994-.662-1.636.009-1.195.004-2.391.004-3.587zm-6.372 7.262c-.014.801-.367 1.158-1.129 1.174-.814.016-1.248-.348-1.255-1.155-.02-2.304.01-4.608-.028-6.912-.006-.327-.208-.724-.446-.96-.389-.388-.324-.69.002-1.018.849-.85 2.088-.693 2.753.404.921-.957 1.991-1.297 3.212-.867 1.288.455 1.772 1.521 1.894 2.789.132 1.378-.079 2.672-1.069 3.727-1.042 1.112-2.316 1.359-3.932.709 0 .734.01 1.422-.002 2.109zm-9.064-.102c-.013.909-.371 1.279-1.214 1.274-.823-.005-1.174-.384-1.177-1.313-.006-2.25.017-4.5-.023-6.75-.006-.326-.223-.713-.46-.957-.413-.427-.318-.75.061-1.075.929-.796 2.006-.637 2.689.417.26-.203.501-.432.777-.603 1.275-.791 2.963-.415 3.774.825.985 1.507.724 4.214-.531 5.505-1.019 1.048-2.169 1.271-3.895.719.001.667.008 1.313-.001 1.958zm15.018-66.507c0-5.361 4.346-9.707 9.708-9.707s9.707 4.346 9.707 9.707-4.346 9.707-9.707 9.707-9.708-4.346-9.708-9.707zm-14.828-41.06c3.393-2.388 5.481-.194 6.409.754 1.802 1.844 11.623 12.315 18.126 12.943 0 0 4.869 1.633 15.676-14.954 0 0 2.011-4.398 4.9-3.142 2.891 1.256 3.52 4.649 1.635 8.419-1.886 3.77-9.703 19.013-17.342 23.373-7.639 4.36-14.423-1.788-17.215-4.524-6.283-6.156-11.435-13.696-12.942-17.214 0 0-1.96-3.746.753-5.655zM18.382 48.066c1.256-2.89 4.649-3.519 8.419-1.633 3.77 1.885 19.013 9.702 23.373 17.341 4.361 7.639-1.788 14.423-4.524 17.216-6.157 6.283-13.697 11.435-17.215 12.943 0 0-3.745 1.959-5.655-.754-2.388-3.393-.194-5.481.754-6.409 1.844-1.802 12.314-11.624 12.943-18.126 0 0 1.633-4.87-14.954-15.676 0-.001-4.398-2.011-3.141-4.902zm8.709 78.875c-.07-.033.037-.777.146-.801.692-.15 1.446-.362 2.107-.221.718.154.679.929.661 1.579a70.695 70.695 0 0 0-.005 3.157c.014.792.455 1.07 1.187.752.697-.305 1.021-.879 1.027-1.629.009-.938-.006-1.877.005-2.816.01-.834.4-1.245 1.162-1.258.804-.015 1.22.407 1.227 1.279.011 1.31-.02 2.619.022 3.926.009.277.293.536.385.824.094.297.217.86.141.895-.597.27-1.236.578-1.868.589-.359.006-.727-.522-1.026-.76-.692.271-1.471.709-2.304.868-1.359.26-2.315-.631-2.332-2.021-.011-.91.033-1.82.028-2.729-.003-.595.213-1.268-.563-1.634zm-4.42 2.637c-.724-.395-1.488-.723-2.182-1.163-.543-.345-1.094-.747-1.487-1.245-1.051-1.334-.654-3.232.847-4.021 1.723-.906 3.46-.716 5.147.165.146.077.278.202.385.331.44.533.371 1.425-.126 1.76-.532.359-1.546.132-1.93-.335-.278-.339-.679-.772-1.046-.793-.422-.023-1.018.252-1.265.595-.348.48-.1 1.053.413 1.394.449.298.93.548 1.403.806.274.15.563.271.843.412 1.937.974 2.613 2.025 2.272 3.529-.34 1.502-1.761 2.416-3.77 2.426-1.356.008-2.592-.31-3.575-1.318-.422-.433-.637-.915-.197-1.433.45-.529.898-.294 1.43-.005a9.348 9.348 0 0 0 2.326.904c.54.125 1.075-.163 1.232-.802.153-.623-.251-.952-.72-1.207zm93.235 34.866c0 .001 0 .001 0 0 0 .058-.006.115-.011.172-.019.169-.06.337-.083.504-.011.08-.025.159-.038.239l-.003.018c-.024.146-.07.293-.101.438a10.554 10.554 0 0 0 .194-1.369 11.295 11.295 0 0 1-.293 1.801l-.037.142a7.406 7.406 0 0 1-.127.442l-.077.244c-.02.059-.04.115-.062.173l-.083.229c-.022.059-.046.116-.069.173a8.38 8.38 0 0 1-.09.219l-.076.172c-.033.071-.064.142-.099.211-.026.057-.055.113-.083.169l-.105.205c-.029.055-.06.109-.09.163a8.007 8.007 0 0 1-.115.201l-.094.156a8.157 8.157 0 0 1-.223.347l-.135.193-.103.143-.146.193-.101.129-.01.012c-.051.063-.104.125-.155.186-.032.039-.063.077-.097.115l-.027.029c-.053.061-.107.119-.162.179-.029.03-.057.063-.086.094-.014.014-.027.026-.039.04-.066.068-.051.137-.117.203-.018.016.035.031.035.047v.002c0 .008-.103.016-.111.023-.192.186-.435.361-.642.529-.006.005-.032.01-.038.014-.1.08-.211.158-.313.234-.014.01-.033.02-.046.03a15.379 15.379 0 0 1-.341.235l-.02.014c-.096.064-.194.126-.294.188l-.077.047a8.389 8.389 0 0 1-.29.168l-.089.05c-.095.052-.19.102-.288.15l-.104.052a9.593 9.593 0 0 1-.29.136l-.073.032-.033.015c-.1.044-.2.085-.302.126l-.109.043a7.385 7.385 0 0 1-.306.111c-.02.008-.04.014-.061.021a14.498 14.498 0 0 1-.368.119c-.037.012-.075.021-.112.031a8.18 8.18 0 0 1-.326.086c-.01.004-.021 0-.031.003-.025.007-.053.003-.08.009-.11.027-.223.057-.335.057h-.001c-.014 0-.027.026-.041.029-.055.01-.109.031-.164.042-.074.015-.148.034-.223.046l-.074.015c-.01.001-.02.004-.029.006l-.115.018c-.089.013-.178.027-.27.038l-.021.003-.031.003c-.207.025-.416.043-.627.057l-.081.006c-.102.006-.204.01-.306.014l-.15.003-.214.003c-10.659.011-21.316.004-31.976.004-17.67 0-35.34.002-53.01-.002a12.974 12.974 0 0 1-.911-.035c-4.569-.348-8.147-3.307-9.229-7.746a10.215 10.215 0 0 1-.28-2.356c-.021-7.151-.013-14.147-.011-21.299 0-.17.02-.425.035-.425H116v21.482c0 .157-.051.313-.057.469-.001.021-.006.041-.008.062-.005.14-.029.284-.029.426z"/><path d="M67.982 151.879c-.004-1.189-.607-1.854-1.646-1.844-1.039.008-1.619.661-1.621 1.873-.006 4.068-.006 8.137 0 12.205.003 1.221.563 1.821 1.648 1.815 1.074-.007 1.614-.61 1.619-1.844.008-2.048.002-4.097.002-6.146 0-2.018.006-4.039-.002-6.059zM78.237 131.551c.245.75.853.742 1.471.642 1.23-.198 1.929-1.263 1.736-2.828-.829.156-1.622.237-2.37.466-.758.23-1.078.983-.837 1.72zM50.792 130.85c.178-.801.169-1.666.102-2.492-.045-.563-.45-.955-1.102-.974-.66-.02-1.111.303-1.293.891-.156.503-.169 1.05-.246 1.577l.065.01c0 .17.007.34-.001.51-.033.687.005 1.383.846 1.523.801.132 1.461-.291 1.629-1.045zM105.988 150.404c-1.891-.305-3.854-.223-5.783-.209-.979.007-1.487.682-1.494 1.719-.015 2.021-.005 4.042-.006 6.063 0 1.963-.003 3.928.002 5.891.002 1.417.523 1.941 1.961 1.953 1.252.012 2.505.021 3.757-.002 1.534-.029 2.995-.365 4.275-1.254 2.491-1.73 3.173-4.256 3.036-7.105-.183-3.776-2.297-6.498-5.748-7.056zm1.584 10.534c-1.225 2.216-3.572 1.863-5.572 1.826v-9.529c2-.045 4.227-.35 5.479 1.754 1.139 1.913 1.17 3.999.093 5.949zM47.212 159.339c.249-.08.328-.109.41-.132 2.612-.715 3.725-2.156 3.579-4.639-.145-2.468-1.554-4.01-4.15-4.269-1.749-.174-3.523-.142-5.284-.116-1.039.016-1.542.598-1.545 1.652a1825.76 1825.76 0 0 0-.001 12.384c.003 1.136.545 1.691 1.571 1.708 1.049.018 1.675-.573 1.704-1.696.034-1.31.005-2.619.012-3.929.001-.201.044-.4.082-.722.279.329.465.544.645.763 1.36 1.645 2.722 3.289 4.076 4.938.49.597 1.17.858 1.821.554.473-.221 1.005-.766 1.089-1.241s-.238-1.144-.586-1.554c-1.06-1.249-2.219-2.415-3.423-3.701zm-1.755-2.267c-.546.002-1.457-.029-1.457-.029v-3.813s1.485-.052 2.321.014c1.022.081 1.532.799 1.571 1.802.041 1.063-.475 1.856-1.522 1.978a7.495 7.495 0 0 1-.913.048zM36.596 162.801a49.82 49.82 0 0 0-1.645-.018l-.823.003c-.273.001-.747.001-1.017-.001-.298-.002-.111-.029-1.111-.045v-3.316c1 0 1.497.006 2.12.009s1.334 0 1.943-.019a1.92 1.92 0 0 0 .664-.136c.499-.219.847-.684.883-1.265.037-.58-.218-1.09-.678-1.359a1.412 1.412 0 0 0-.488-.18 3.33 3.33 0 0 0-.404-.041c-.237-.014-.477-.221-.711-.222-.48-.002-.975-.211-1.469-.211H32v-2.791c2 0 2.708.006 3.901-.002 1.087-.007 1.821-.527 1.857-1.459.037-.958-.542-1.572-1.653-1.586a184.988 184.988 0 0 0-5.175.002c-1.136.017-1.77.609-1.778 1.739-.031 4.1-.021 8.2-.006 12.3.003.888.527 1.543 1.376 1.571a101.202 101.202 0 0 0 6.234.013c.067-.002.131-.01.193-.02.726-.123 1.149-.813 1.099-1.594-.051-.805-.586-1.345-1.452-1.372zM96.322 163.419a1.233 1.233 0 0 0-.279-.302 1.385 1.385 0 0 0-.333-.189 1.94 1.94 0 0 0-.563-.126 2.8 2.8 0 0 0-.185-.008c-1.325-.019-2.962-.005-3.962-.005v-3.361c1 0 1.482.01 2.244.008.461 0 .927-.004 1.374-.014.977-.024 1.567-.666 1.532-1.555a1.57 1.57 0 0 0-.23-.789c-.249-.395-.697-.631-1.324-.647a56.327 56.327 0 0 0-1.369-.016c-.755-.001-1.227.009-2.227.009v-3.215c1 0 2.431.006 3.622-.002 1.132-.006 1.739-.551 1.741-1.521.002-.916-.624-1.509-1.688-1.523a188.879 188.879 0 0 0-5.217.001c-1.178.017-1.808.618-1.813 1.802-.025 4.071-.021 8.143-.004 12.213.004.989.609 1.611 1.605 1.631a140.578 140.578 0 0 0 5.807 0c.992-.018 1.595-.746 1.501-1.695a1.525 1.525 0 0 0-.232-.696zM24.646 162.125c-.481.173-.94.412-1.427.566-2.385.758-4.587-.316-5.229-2.729a7.969 7.969 0 0 1-.131-3.357c.514-2.878 2.839-4.15 5.626-3.242.405.133.799.307 1.212.407 1.163.286 2.137-.64 1.71-1.753-.226-.588-.819-1.203-1.399-1.449-.975-.414-2.071-.543-3.116-.791-1.491.131-2.876.434-4.098 1.242-2.557 1.695-3.546 4.166-3.545 7.163.002 5.179 4.411 9.458 10.65 7.353.58-.195 1.137-.653 1.542-1.129.493-.578.388-1.287-.093-1.887-.456-.568-1.059-.624-1.702-.394zM84.73 151.42c-.056-.693-.455-1.139-1.146-1.312-1.174-.292-2.073.383-2.095 1.665-.035 2.077-.01 4.154-.01 6.231s-.021 4.154.008 6.231c.014 1.107.596 1.676 1.605 1.691 1.129.017 1.68-.589 1.688-1.963.017-3.471.008-6.942.004-10.414 0-.709.003-1.422-.054-2.129zM84.449 126.404l-.007-.008c-.099-.105-.165-.219-.165-.34 0 .123.063.241.165.348l.002.019c.007.006.011.013.017.019-.002-.008-.004-.016-.008-.024l-.004-.014zM85.104 125.356l.019-.007-.002.047.058-.062.003-.003v-.011l-.012.003a.868.868 0 0 1-.047.016v-.008l-.008.01-.011.015z"/><path d="M85.133 125.318l-.01.003v.011z"/></g></svg>
