<svg xmlns="http://www.w3.org/2000/svg" width="70" height="70"><path fill="#222" d="M34.46 1C15.986 1 .955 16.031.955 34.505S15.986 68.01 34.46 68.01s33.505-15.031 33.505-33.505S52.937 1 34.46 1zm14.947 25.837c.014.332.022.667.022 1.002 0 10.19-7.755 21.938-21.943 21.938a21.81 21.81 0 0 1-11.821-3.463c.604.071 1.218.108 1.84.108a15.47 15.47 0 0 0 9.578-3.302 7.719 7.719 0 0 1-7.204-5.355 7.773 7.773 0 0 0 3.482-.13 7.713 7.713 0 0 1-6.185-7.562l.001-.096a7.685 7.685 0 0 0 3.491.963 7.704 7.704 0 0 1-3.429-6.417c0-1.416.379-2.74 1.042-3.879a21.9 21.9 0 0 0 15.895 8.059 7.65 7.65 0 0 1-.198-1.758 7.711 7.711 0 0 1 13.339-5.278 15.42 15.42 0 0 0 4.899-1.872 7.748 7.748 0 0 1-3.396 4.267c1.53-.18 3.023-.588 4.43-1.213a15.489 15.489 0 0 1-3.843 3.988z"/></svg>
